<?xml version="1.0" encoding="iso-8859-1"?>
<!-- Generator: Adobe Illustrator 19.0.0, SVG Export Plug-In . SVG Version: 6.00 Build 0)  -->
<svg version="1.1" id="Capa_1" xmlns="http://www.w3.org/2000/svg" xmlns:xlink="http://www.w3.org/1999/xlink" x="0px" y="0px"
	 viewBox="0 0 511 511" style="enable-background:new 0 0 511 511;" xml:space="preserve">
<g>
	<path d="M129.602,0l-32,160H7.75v15h86.852h26.527l8,64h47.121v16.5h15V239h47.121l8-64h25.879v257h-39.758l16-104H119.008
		l2.47,16.053c-0.575-0.033-1.15-0.053-1.727-0.053c-17.369,0-31.5,14.131-31.5,31.5s14.131,31.5,31.5,31.5
		c3.847,0,7.593-0.7,11.1-2.025L135.008,432H79.75v15h16.5v64h407V0H129.602z M488.25,40h-113V15h113V40z M225.129,224h-82.758
		l-6.125-49h95.008L225.129,224z M248.246,160H127.75h-8.496h-6.355l29-145H360.25v417h-73V160H248.246z M231.008,343l-3.846,25
		h-86.823l-3.846-25H231.008z M119.75,392c-9.098,0-16.5-7.402-16.5-16.5s7.402-16.5,16.5-16.5c1.372,0,2.748,0.2,4.117,0.582
		l4.6,29.898C125.867,391.113,122.872,392,119.75,392z M142.646,383h82.208l-7.539,49h-67.131L142.646,383z M111.25,447h26.065
		h92.869H360.25v49h-249V447z M375.25,496V55h113v441H375.25z"/>
	<path d="M207.75,40c-10.395,0-20.013,3.365-27.843,9.051l-6.854-6.854l-10.606,10.606l6.854,6.854
		c-5.686,7.83-9.051,17.448-9.051,27.843c0,26.191,21.309,47.5,47.5,47.5c10.395,0,20.013-3.365,27.843-9.051l6.854,6.854
		l10.606-10.606l-6.854-6.854c5.686-7.83,9.051-17.448,9.051-27.843C255.25,61.309,233.941,40,207.75,40z M207.75,55
		c17.92,0,32.5,14.58,32.5,32.5c0,6.249-1.777,12.088-4.846,17.048l-44.702-44.702C195.662,56.777,201.501,55,207.75,55z
		 M207.75,120c-17.92,0-32.5-14.58-32.5-32.5c0-6.249,1.777-12.088,4.846-17.048l44.702,44.702
		C219.838,118.223,213.999,120,207.75,120z"/>
	<path d="M327.25,87.5c0-12.958-10.542-23.5-23.5-23.5s-23.5,10.542-23.5,23.5s10.542,23.5,23.5,23.5S327.25,100.458,327.25,87.5z
		 M295.25,87.5c0-4.687,3.813-8.5,8.5-8.5s8.5,3.813,8.5,8.5s-3.813,8.5-8.5,8.5S295.25,92.187,295.25,87.5z"/>
	<rect x="456.25" y="71.5" width="15" height="24"/>
	<rect x="456.25" y="111.5" width="15" height="112"/>
</g>
<g>
</g>
<g>
</g>
<g>
</g>
<g>
</g>
<g>
</g>
<g>
</g>
<g>
</g>
<g>
</g>
<g>
</g>
<g>
</g>
<g>
</g>
<g>
</g>
<g>
</g>
<g>
</g>
<g>
</g>
</svg>
